<mxfile host="65bd71144e">
    <diagram id="1uyIFCrYjEnZss3KLxLL" name="ページ1">
        <mxGraphModel dx="851" dy="487" grid="1" gridSize="10" guides="1" tooltips="1" connect="1" arrows="1" fold="1" page="1" pageScale="1" pageWidth="827" pageHeight="1169" math="0" shadow="0">
            <root>
                <mxCell id="0"/>
                <mxCell id="1" parent="0"/>
                <mxCell id="2" value="問い合わせ送信システム" style="swimlane;startSize=0;verticalAlign=top;" vertex="1" parent="1">
                    <mxGeometry x="200" y="30" width="600" height="480" as="geometry"/>
                </mxCell>
                <mxCell id="4" value="問い合わせ内容の記入" style="ellipse;whiteSpace=wrap;html=1;align=center;" vertex="1" parent="2">
                    <mxGeometry x="145" y="60" width="310" height="50" as="geometry"/>
                </mxCell>
                <mxCell id="5" value="問い合わせ内容の送信" style="ellipse;whiteSpace=wrap;html=1;align=center;" vertex="1" parent="2">
                    <mxGeometry x="145" y="120" width="310" height="50" as="geometry"/>
                </mxCell>
                <mxCell id="6" value="問い合わせ内容の確認" style="ellipse;whiteSpace=wrap;html=1;align=center;" vertex="1" parent="2">
                    <mxGeometry x="145" y="180" width="310" height="50" as="geometry"/>
                </mxCell>
                <mxCell id="3" value="購入者" style="shape=umlActor;verticalLabelPosition=bottom;verticalAlign=top;html=1;outlineConnect=0;" vertex="1" parent="1">
                    <mxGeometry x="40" y="140" width="100" height="190" as="geometry"/>
                </mxCell>
            </root>
        </mxGraphModel>
    </diagram>
</mxfile>